<?xml version="1.0" encoding="utf-8"?>
<!-- Generator: Adobe Illustrator 18.1.1, SVG Export Plug-In . SVG Version: 6.00 Build 0)  -->
<!DOCTYPE svg PUBLIC "-//W3C//DTD SVG 1.1//EN" "http://www.w3.org/Graphics/SVG/1.1/DTD/svg11.dtd">
<svg version="1.1" id="Layer_1" xmlns="http://www.w3.org/2000/svg" xmlns:xlink="http://www.w3.org/1999/xlink" x="0px" y="0px"
	 width="201.3px" height="225px" viewBox="0 0 201.3 225" enable-background="new 0 0 201.3 225" xml:space="preserve">
<g>
	<g id="Layer_3">
		<path fill="#FAA51F" stroke="#010101" stroke-width="2.0653" d="M49.5,161.5c-5-0.9-11-2.7-16-7.2c-11.3-10.1-14.9-26.9-22.8-22.5
			c-8,4.3-7.8,31.3,17.3,39.6c8.6,2.9,16.5,2.9,22.9,2.7c1.7-0.1,15.9-1.4,20.8-8.4c4.9-7.1,1.5-8.8-0.2-9.8
			C69.8,154.9,56.5,162.8,49.5,161.5z"/>
		<path fill="#FFFFFF" d="M11.8,132.2c-4.1,1.3-6.4,10.3-4.3,17.5c2.1,7.2,5.4,10.4,8,13.2c3.2,2.1-1.5-5,2.8-8.6
			c4.3-3.6,11.8-1.9,11.8-1.9s-6-8.2-9.4-13.2C17.5,134.5,16.2,131.2,11.8,132.2z"/>
	</g>
	<g>
		<path fill="#FAA51F" d="M82,177.4c0,0-18.2,12.8-35.3,17.4l0.2,0.4c2.6,3.8,12.1,15.5-0.7,19.6c-11,3.5-31.2-27.1-22.3-32.8
			c5.4-3.5,10.1-0.5,10.1-0.5s7.2-2.2,12.4-4.8c8.9-4.5,11.9-7.1,11.9-7.1s8.6-8.9,14.2-8.5C78,161.3,89.1,170.7,82,177.4z"/>
		<path fill="none" stroke="#231F20" stroke-width="2.4784" d="M46.9,195.2c2.6,3.8,12.1,15.5-0.7,19.6c-11,3.5-31.7-27.6-22.8-33.3
			c5.4-3.5,10.5,0,10.5,0s7.2-2.2,12.4-4.8c8.9-4.5,11.9-7.1,11.9-7.1"/>
		<path fill="none" stroke="#231F20" stroke-width="2.4784" d="M82,177.4c0,0-20.9,14.7-38.8,18.2"/>
	</g>
	<path fill="#FAA51F" stroke="#231F20" stroke-width="2.4784" d="M110.8,152.9c0,0,2.6,0.3,9.8,7.6c7.2,7.2,12.4,4.5,18.4,1.5
		c5.9-3,21.8-12.7,13.4-20.3c-8.4-7.6-12.8,2.4-20.1,5c-7.3,2.6-10.5-5.1-14.2-8.9c-1.2-1.2-2.5-2.3-3.6-3.1c0,0-2-1.6-3.9,5.8
		C108.8,147.8,106.7,149.8,110.8,152.9z"/>
	<g id="Layer_2_1_">
		<path fill="#FAA51F" stroke="#231F20" stroke-width="2.4784" d="M99.6,167.6c2.5-1.9,5-5,8.2-9.7c2.7-4,5.6-11.5,5.6-11.5
			c1.8-5.2,4-13.6-3.9-15.1c-3.2-0.6-8.4-0.2-15.8-1.6c-7.4-1.4-14-5.2-19.7,4.6c-5.6,9.8-19.8,17.1-2.2,34.2
			c0,0,10.1,7.9,22.2,19.9c10,9.9,24.9,21.9,24.9,21.9s39.2,4.5,40.3-1.4c4-20.2-30.5-14.3-30.5-14.3s-9.5-8.1-13.9-12
			c-7.2-6.3-23-22.2-23-22.2"/>
		<path fill="#FFFFFF" d="M108.9,154c0,0,5.1-5.5-5.1-11c-10.2-5.5-14.9,0-18,3.1c-5.5,5.5,7.1,13.7,7.1,13.7l6.6,6.6
			c0,0,3.6-3.4,5.2-6.2C106.4,157.8,108.9,154,108.9,154"/>
	</g>
	<g id="Layer_8">
	</g>
	<path fill="#FAA51F" stroke="#231F20" stroke-width="2.4784" d="M64.9,149.4c1.5-1.2,6-4.5,10-7.6c5-3.7,12.6-12.1,2.2-15.8
		c-10.4-3.7-15.5,3.3-23.8,10.2c-4.5,3.7-11,5.6-8.9,12.8c2.1,7.3,10,27.7,24.3,21c14.3-6.7-3.7-19-6.3-23"/>
	<g id="Layer_2">
		<path fill="#FAA51F" stroke="#231F20" stroke-width="2.4784" d="M111.9,27.5c-3.2-0.3-9.8-0.7-13.5-0.5c-9.8,0.5-19.1,4-19.1,4
			L52.5,13.4l4.6,39c1.3-1.6-21.8,26.4-7.2,50c14.6,23.6,45.9,34.1,84.7,26.4c38.7-7.7,48-30,45.4-41.8
			c-2.6-11.8-17.2-16.2-17.2-16.2s-0.2-9.3-6.9-20.6c-4-6.7-17.2-16.6-17.2-16.6l-5.9-23.9l-15.4,14.9L111.9,27.5z"/>
		<path fill="#FFFFFF" d="M160.9,70.6l-5.1-4.3L137,71.9c0,0,0,7.1-9,9c-9,2-23.2-4.7-23.2-4.7l-16.1,7.1c0,0-17.4,1.9-18,12.6
			c-1.4,23.7,27.6,33.5,38.6,34.1c6,0.3,17-0.7,25.4-2.4c36.7-6.7,46.6-28.7,44-40.6c-2.6-11.8-16.5-14.9-16.5-14.9L160.9,70.6z"/>
		<path fill="none" stroke="#231F20" stroke-width="2.4784" d="M25.1,93.5c0,0,8.5,0.8,12.3,0.6c3.9-0.2,11.3-1.2,11.3-1.2"/>
		<path fill="none" stroke="#231F20" stroke-width="2.4784" d="M171.7,82.2c0,0,9.4-1.5,14.2-3.2c5.6-1.9,9.4-5.3,9.4-5.3"/>
		<path fill="none" stroke="#231F20" stroke-width="2.4784" d="M49.2,84.8c0,0-4.9-3.7-12.6-7.1c-8.5-3.8-13.2-4.8-13.2-4.8"/>
		<path fill="none" stroke="#231F20" stroke-width="2.4784" d="M172.7,94.5c0,0,5.6,2.3,11.4,2.9c5.7,0.6,9.6,0.2,9.6,0.2"/>
		<path fill="none" stroke="#010101" stroke-width="2.0653" stroke-linecap="round" stroke-miterlimit="10" d="M111.2,27.6
			c5.9,1.4,8,3,8,3"/>
		<line fill="none" stroke="#010101" stroke-width="2.0653" x1="73.1" y1="26.5" x2="85.6" y2="35.5"/>
	</g>
	<g id="Layer_5">
		<path fill="#FFFFFF" stroke="#231F20" stroke-width="2.0653" d="M151.5,50.6c6,9.3,6.3,19.8,0.5,23.6c-5.8,3.8-15.3-0.7-21.4-9.9
			c-6.1-9.3-6.3-19.8-0.5-23.6C135.8,36.9,145.4,41.4,151.5,50.6z"/>
		<path fill="#231F20" d="M149.9,65.4c0,2.2-1.7,4-3.7,4c-2.1,0-3.7-1.8-3.7-4c0-2.2,1.7-4,3.7-4C148.2,61.3,149.9,63.2,149.9,65.4"
			/>
	</g>
	<g id="Layer_7">
		<path fill="#FFFFFF" stroke="#231F20" stroke-width="2.0653" d="M101.9,57.3c6,9.3,5.4,20.4-1.4,24.8c-6.8,4.5-17.2,0.6-23.3-8.7
			c-6-9.3-5.4-20.4,1.4-24.8C85.5,44.2,95.9,48.1,101.9,57.3z"/>
		<path fill="#231F20" d="M98.3,69.5c0,2.2-1.7,4-3.7,4c-2,0-3.7-1.8-3.7-4c0-2.2,1.7-4,3.7-4C96.6,65.4,98.3,67.3,98.3,69.5"/>
	</g>
	<path fill="#5F4B43" stroke="#010101" stroke-width="2.0653" d="M126.5,76.6c3.8,0,9.4-0.6,9.7,1.2c0.3,1.8-3.5,8.7-6.2,9
		c-2.6,0.3-12.7-4.9-12.8-8.1C117.1,75.4,123,76.6,126.5,76.6z"/>
	<g id="Layer_4">
		<path fill="none" stroke="#231F20" stroke-width="2.4784" d="M99.7,91.6c0,0,21.4,6.3,29.4,8c8,1.7,22.4,3.5,22.4,3.5
			S135,124.3,115.7,119C96.4,113.6,96.7,101.4,99.7,91.6z"/>
	</g>
</g>
</svg>
